<svg xmlns="http://www.w3.org/2000/svg" viewBox="0 0 64 64" role="img" aria-label="firefly">
  <path id="logo-text" d="M19.8864 20.8182V24.9091H5.09091V20.8182H19.8864ZM9.14773 47V17.7841C9.14773 16.1477 9.50568 14.7898 10.2216 13.7102C10.9375 12.6193 11.8864 11.8068 13.0682 11.2727C14.25 10.7273 15.5341 10.4545 16.9205 10.4545C17.9432 10.4545 18.8182 10.5398 19.5455 10.7102C20.2727 10.8693 20.8125 11.017 21.1648 11.1534L19.9716 15.2784C19.733 15.2102 19.4261 15.1307 19.0511 15.0398C18.6761 14.9375 18.2216 14.8864 17.6875 14.8864C16.4489 14.8864 15.5625 15.1932 15.0284 15.8068C14.5057 16.4205 14.2443 17.3068 14.2443 18.4659V47H9.14773ZM37.848" style="transform: translateX(10px);" />
  <g id="logo-firefly" style="transform: translateX(10px);">
    <ellipse cx="27.5" cy="39.5" rx="10.5" ry="13.5" fill="#DBFF00" fill-opacity="0.7" />
    <path d="M31 42C31 48.6667 24 48.6667 24 42H27.5H31Z" fill="#0C0C0C" />
    <path d="M31 24C31 20 24 20 24 24H27.5H31Z" fill="#F9656F" />
    <rect x="24" y="26.5" width="7" height="15.5" fill="#0C0C0C" />
    <rect x="24" y="24" width="7" height="2" fill="#F9656F" />
    <path d="M27.5 21V26" stroke="#0C0C0C" />
    <path d="M27.5 28.5L29 26.5H26L27.5 28.5Z" fill="black" />
    <path d="M27.18 24.5733C27.34 24.7867 27.66 24.7867 27.82 24.5733L28.52 23.64C28.7178 23.3763 28.5296 23 28.2 23H26.8C26.4704 23 26.2822 23.3763 26.48 23.64L27.18 24.5733Z" fill="#0C0C0C" />
    <path d="M27.5 27V47" stroke="black" />
    <ellipse cx="27.5" cy="18.5" rx="2.5" ry="2" fill="#0C0C0C" />
  </g>
</svg>