<svg xmlns="http://www.w3.org/2000/svg" viewBox="0 0 60 60" role="img" aria-label="firefly-icon">
  <rect width="60" height="60" fill="#0C0C0C" />
  <g id="fi" transform="translate(13, 2)">
    <!-- "f" -->
    <path d="M9 20V24H0V20H9ZM3 47V17C3 15.5 3.3 14.2 4 13.2C4.7 12.2 5.6 11.5 6.6 11C7.6 10.5 8.7 10.2 10 10.2C11 10.2 11.9 10.3 12.6 10.5C13.3 10.7 13.8 10.8 14.1 11L13 15C12.8 14.9 12.5 14.8 12.1 14.7C11.7 14.6 11.3 14.5 10.8 14.5C9.6 14.5 8.7 14.8 8.2 15.4C7.7 16 7.5 16.9 7.5 18V47H3Z" fill="#FFF" />
    <!-- "i" as firefly -->
    <ellipse cx="27.5" cy="39.5" rx="10.5" ry="13.5" fill="#DBFF00" fill-opacity="0.7" />
    <path d="M31 42C31 48.6667 24 48.6667 24 42H27.5H31Z" fill="#0C0C0C" />
    <path d="M31 24C31 20 24 20 24 24H27.5H31Z" fill="#F9656F" />
    <rect x="24" y="26.5" width="7" height="15.5" fill="#0C0C0C" />
    <rect x="24" y="24" width="7" height="2" fill="#F9656F" />
    <path d="M27.5 21V26" stroke="#0C0C0C" />
    <path d="M27.5 28.5L29 26.5H26L27.5 28.5Z" fill="black" />
    <path d="M27.18 24.5733C27.34 24.7867 27.66 24.7867 27.82 24.5733L28.52 23.64C28.7178 23.3763 28.5296 23 28.2 23H26.8C26.4704 23 26.2822 23.3763 26.48 23.64L27.18 24.5733Z" fill="#0C0C0C" />
    <path d="M27.5 27V47" stroke="black" />
    <ellipse cx="27.5" cy="18.5" rx="2.5" ry="2" fill="#0C0C0C" />
  </g>
</svg>
