<svg xmlns="http://www.w3.org/2000/svg" style="display: none;">
  <symbol id="icon-home">
    <path
      stroke-linecap="round" stroke-linejoin="round" stroke-width="1.5"
      d="M3 12l2-2m0 0l7-7 7 7M5 10v10a1 1 0 001 1h3m10-11l2 2m-2-2v10a1 1 0 01-1 1h-3m-6 0a1 1 0 001-1v-4a1 1 0 011-1h2a1 1 0 011 1v4a1 1 0 001 1m-6 0h6" />
  </symbol>
  <symbol id="icon-identification">
    <path stroke-linecap="round" stroke-linejoin="round" stroke-width="1.5"
      d="M15 9h3.75M15 12h3.75M15 15h3.75M4.5 19.5h15a2.25 2.25 0 0 0 2.25-2.25V6.75A2.25 2.25 0 0 0 19.5 4.5h-15a2.25 2.25 0 0 0-2.25 2.25v10.5A2.25 2.25 0 0 0 4.5 19.5Zm6-10.125a1.875 1.875 0 1 1-3.75 0 1.875 1.875 0 0 1 3.75 0Zm1.294 6.336a6.721 6.721 0 0 1-3.17.789 6.721 6.721 0 0 1-3.168-.789 3.376 3.376 0 0 1 6.338 0Z" />
  </symbol>
  <symbol id="icon-window">
    <path stroke-linecap="round" stroke-linejoin="round" stroke-width="1.5"
      d="M3 8.25V18a2.25 2.25 0 0 0 2.25 2.25h13.5A2.25 2.25 0 0 0 21 18V8.25m-18 0V6a2.25 2.25 0 0 1 2.25-2.25h13.5A2.25 2.25 0 0 1 21 6v2.25m-18 0h18M5.25 6h.008v.008H5.25V6ZM7.5 6h.008v.008H7.5V6Zm2.25 0h.008v.008H9.75V6Z" />
  </symbol>
  <symbol id="icon-works">
    <path stroke-linecap="round" stroke-linejoin="round" stroke-width="1.5"
      d="M3 8.25V18a2.25 2.25 0 0 0 2.25 2.25h13.5A2.25 2.25 0 0 0 21 18V8.25m-18 0V6a2.25 2.25 0 0 1 2.25-2.25h13.5A2.25 2.25 0 0 1 21 6v2.25m-18 0h18M5.25 6h.008v.008H5.25V6ZM7.5 6h.008v.008H7.5V6Zm2.25 0h.008v.008H9.75V6Z" />
  </symbol>
  <symbol id="icon-envelope">
    <path stroke-linecap="round" stroke-linejoin="round" stroke-width="1.5"
      d="M21.75 6.75v10.5a2.25 2.25 0 0 1-2.25 2.25h-15a2.25 2.25 0 0 1-2.25-2.25V6.75m19.5 0A2.25 2.25 0 0 0 19.5 4.5h-15a2.25 2.25 0 0 0-2.25 2.25m19.5 0v.243a2.25 2.25 0 0 1-1.07 1.916l-7.5 4.615a2.25 2.25 0 0 1-2.36 0L3.32 8.91a2.25 2.25 0 0 1-1.07-1.916V6.75" />
  </symbol>
  <symbol id="icon-code-bracket">
    <path stroke-linecap="round" stroke-linejoin="round" stroke-width="1.5"
      d="M17.25 6.75 22.5 12l-5.25 5.25m-10.5 0L1.5 12l5.25-5.25m7.5-3-4.5 16.5" />
  </symbol>
  <symbol id="icon-user">
    <path stroke-linecap="round" stroke-linejoin="round" stroke-width="1.5"
      d="M15.75 6a3.75 3.75 0 1 1-7.5 0 3.75 3.75 0 0 1 7.5 0ZM4.501 20.118a7.5 7.5 0 0 1 14.998 0A17.933 17.933 0 0 1 12 21.75c-2.676 0-5.216-.584-7.499-1.632Z" />
  </symbol>
</svg>