<svg xmlns="http://www.w3.org/2000/svg" style="display: none;">
  <symbol id="icon-home">
    <path stroke-linecap="round" stroke-linejoin="round" stroke-width="1.5" d="M3 12l2-2m0 0l7-7 7 7M5 10v10a1 1 0 001 1h3m10-11l2 2m-2-2v10a1 1 0 01-1 1h-3m-6 0a1 1 0 001-1v-4a1 1 0 011-1h2a1 1 0 011 1v4a1 1 0 001 1m-6 0h6" />
  </symbol>
  <symbol id="icon-identification">
    <path stroke-linecap="round" stroke-linejoin="round" stroke-width="1.5" d="M15 9h3.75M15 12h3.75M15 15h3.75M4.5 19.5h15a2.25 2.25 0 0 0 2.25-2.25V6.75A2.25 2.25 0 0 0 19.5 4.5h-15a2.25 2.25 0 0 0-2.25 2.25v10.5A2.25 2.25 0 0 0 4.5 19.5Zm6-10.125a1.875 1.875 0 1 1-3.75 0 1.875 1.875 0 0 1 3.75 0Zm1.294 6.336a6.721 6.721 0 0 1-3.17.789 6.721 6.721 0 0 1-3.168-.789 3.376 3.376 0 0 1 6.338 0Z" />
  </symbol>
  <symbol id="icon-window">
    <path stroke-linecap="round" stroke-linejoin="round" stroke-width="1.5" d="M3 8.25V18a2.25 2.25 0 0 0 2.25 2.25h13.5A2.25 2.25 0 0 0 21 18V8.25m-18 0V6a2.25 2.25 0 0 1 2.25-2.25h13.5A2.25 2.25 0 0 1 21 6v2.25m-18 0h18M5.25 6h.008v.008H5.25V6ZM7.5 6h.008v.008H7.5V6Zm2.25 0h.008v.008H9.75V6Z" />
  </symbol>
  <symbol id="icon-works">
    <path stroke-linecap="round" stroke-linejoin="round" stroke-width="1.5" d="M3 8.25V18a2.25 2.25 0 0 0 2.25 2.25h13.5A2.25 2.25 0 0 0 21 18V8.25m-18 0V6a2.25 2.25 0 0 1 2.25-2.25h13.5A2.25 2.25 0 0 1 21 6v2.25m-18 0h18M5.25 6h.008v.008H5.25V6ZM7.5 6h.008v.008H7.5V6Zm2.25 0h.008v.008H9.75V6Z" />
  </symbol>
  <symbol id="icon-envelope">
    <path stroke-linecap="round" stroke-linejoin="round" stroke-width="1.5" d="M21.75 6.75v10.5a2.25 2.25 0 0 1-2.25 2.25h-15a2.25 2.25 0 0 1-2.25-2.25V6.75m19.5 0A2.25 2.25 0 0 0 19.5 4.5h-15a2.25 2.25 0 0 0-2.25 2.25m19.5 0v.243a2.25 2.25 0 0 1-1.07 1.916l-7.5 4.615a2.25 2.25 0 0 1-2.36 0L3.32 8.91a2.25 2.25 0 0 1-1.07-1.916V6.75" />
  </symbol>
  <symbol id="icon-code-bracket">
    <path stroke-linecap="round" stroke-linejoin="round" stroke-width="1.5" d="M17.25 6.75 22.5 12l-5.25 5.25m-10.5 0L1.5 12l5.25-5.25m7.5-3-4.5 16.5" />
  </symbol>
  <symbol id="icon-user">
    <path stroke-linecap="round" stroke-linejoin="round" stroke-width="1.5" d="M15.75 6a3.75 3.75 0 1 1-7.5 0 3.75 3.75 0 0 1 7.5 0ZM4.501 20.118a7.5 7.5 0 0 1 14.998 0A17.933 17.933 0 0 1 12 21.75c-2.676 0-5.216-.584-7.499-1.632Z" />
  </symbol>
  <symbol id="icon-sun">
    <path stroke-linecap="round" stroke-linejoin="round" stroke-width="1.5" d="M12 3v2.25m6.364.386-1.591 1.591M21 12h-2.25m-.386 6.364-1.591-1.591M12 18.75V21m-4.773-4.227-1.591 1.591M5.25 12H3m4.227-4.773L5.636 5.636M15.75 12a3.75 3.75 0 1 1-7.5 0 3.75 3.75 0 0 1 7.5 0Z" />
  </symbol>
  <symbol id="icon-moon">
    <path stroke-linecap="round" stroke-linejoin="round" stroke-width="1.5" d="M21.752 15.002A9.72 9.72 0 0 1 18 15.75c-5.385 0-9.75-4.365-9.75-9.75 0-1.33.266-2.597.748-3.752A9.753 9.753 0 0 0 3 11.25C3 16.635 7.365 21 12.75 21a9.753 9.753 0 0 0 9.002-5.998Z" />
  </symbol>
  <symbol id="icon-bars-3">
    <path stroke-linecap="round" stroke-linejoin="round" stroke-width="1.5" d="M3.75 6.75h16.5M3.75 12h16.5m-16.5 5.25h16.5" />
  </symbol>
  <symbol id="icon-x-mark">
    <path stroke-linecap="round" stroke-linejoin="round" stroke-width="1.5" d="M6 18 18 6M6 6l12 12" />
  </symbol>
  <symbol id="icon-eye-slash">
    <path stroke-linecap="round" stroke-linejoin="round" stroke-width="1.5" d="M3.98 8.223A10.477 10.477 0 0 0 1.934 12C3.226 16.338 7.244 19.5 12 19.5c.993 0 1.953-.138 2.863-.395M6.228 6.228A10.451 10.451 0 0 1 12 4.5c4.756 0 8.773 3.162 10.065 7.498a10.522 10.522 0 0 1-4.293 5.774M6.228 6.228 3 3m3.228 3.228 3.65 3.65m7.894 7.894L21 21m-3.228-3.228-3.65-3.65m0 0a3 3 0 1 0-4.243-4.243m4.242 4.242L9.88 9.88" />
  </symbol>
  <symbol id="icon-eye">
    <path stroke-linecap="round" stroke-linejoin="round" stroke-width="1.5" d="M2.036 12.322a1.012 1.012 0 0 1 0-.639C3.423 7.51 7.36 4.5 12 4.5c4.638 0 8.573 3.007 9.963 7.178.07.207.07.431 0 .639C20.577 16.49 16.64 19.5 12 19.5c-4.638 0-8.573-3.007-9.963-7.178Z" />
    <path stroke-linecap="round" stroke-linejoin="round" stroke-width="1.5" d="M15 12a3 3 0 1 1-6 0 3 3 0 0 1 6 0Z" />
  </symbol>
  <symbol id="icon-key">
    <path stroke-linecap="round" stroke-linejoin="round" stroke-width="1.5" d="M15.75 5.25a3 3 0 0 1 3 3m3 0a6 6 0 0 1-7.029 5.912c-.563-.097-1.159.026-1.563.43L10.5 17.25H8.25v2.25H6v2.25H2.25v-2.818c0-.597.237-1.17.659-1.591l6.499-6.499c.404-.404.527-1 .43-1.563A6 6 0 1 1 21.75 8.25Z" />
  </symbol>
</svg>