<svg xmlns="http://www.w3.org/2000/svg" style="display: none;">
  <symbol id="icon-home">
    <path
      stroke-linecap="round" stroke-linejoin="round" stroke-width="1.5"
      d="M3 12l2-2m0 0l7-7 7 7M5 10v10a1 1 0 001 1h3m10-11l2 2m-2-2v10a1 1 0 01-1 1h-3m-6 0a1 1 0 001-1v-4a1 1 0 011-1h2a1 1 0 011 1v4a1 1 0 001 1m-6 0h6" />
  </symbol>
  <symbol id="icon-identification">
    <path stroke-linecap="round" stroke-linejoin="round" stroke-width="1.5"
      d="M15 9h3.75M15 12h3.75M15 15h3.75M4.5 19.5h15a2.25 2.25 0 0 0 2.25-2.25V6.75A2.25 2.25 0 0 0 19.5 4.5h-15a2.25 2.25 0 0 0-2.25 2.25v10.5A2.25 2.25 0 0 0 4.5 19.5Zm6-10.125a1.875 1.875 0 1 1-3.75 0 1.875 1.875 0 0 1 3.75 0Zm1.294 6.336a6.721 6.721 0 0 1-3.17.789 6.721 6.721 0 0 1-3.168-.789 3.376 3.376 0 0 1 6.338 0Z" />
  </symbol>
  <symbol id="icon-wrench-screwdriver">
    <path stroke-linecap="round" stroke-linejoin="round" stroke-width="1.5"
      d="M11.42 15.17 17.25 21A2.652 2.652 0 0 0 21 17.25l-5.877-5.877M11.42 15.17l2.496-3.03c.317-.384.74-.626 1.208-.766M11.42 15.17l-4.655 5.653a2.548 2.548 0 1 1-3.586-3.586l6.837-5.63m5.108-.233c.55-.164 1.163-.188 1.743-.14a4.5 4.5 0 0 0 4.486-6.336l-3.276 3.277a3.004 3.004 0 0 1-2.25-2.25l3.276-3.276a4.5 4.5 0 0 0-6.336 4.486c.091 1.076-.071 2.264-.904 2.95l-.102.085m-1.745 1.437L5.909 7.5H4.5L2.25 3.75l1.5-1.5L7.5 4.5v1.409l4.26 4.26m-1.745 1.437 1.745-1.437m6.615 8.206L15.75 15.75M4.867 19.125h.008v.008h-.008v-.008Z" />
  </symbol>
  <symbol id="icon-works">
    <path stroke-linecap="round" stroke-linejoin="round" stroke-width="1.5"
      d="M3 8.25V18a2.25 2.25 0 0 0 2.25 2.25h13.5A2.25 2.25 0 0 0 21 18V8.25m-18 0V6a2.25 2.25 0 0 1 2.25-2.25h13.5A2.25 2.25 0 0 1 21 6v2.25m-18 0h18M5.25 6h.008v.008H5.25V6ZM7.5 6h.008v.008H7.5V6Zm2.25 0h.008v.008H9.75V6Z" />
  </symbol>
  <symbol id="icon-envelope">
    <path stroke-linecap="round" stroke-linejoin="round" stroke-width="1.5"
      d="M21.75 6.75v10.5a2.25 2.25 0 0 1-2.25 2.25h-15a2.25 2.25 0 0 1-2.25-2.25V6.75m19.5 0A2.25 2.25 0 0 0 19.5 4.5h-15a2.25 2.25 0 0 0-2.25 2.25m19.5 0v.243a2.25 2.25 0 0 1-1.07 1.916l-7.5 4.615a2.25 2.25 0 0 1-2.36 0L3.32 8.91a2.25 2.25 0 0 1-1.07-1.916V6.75" />
  </symbol>
  <symbol id="icon-code-bracket">
    <path stroke-linecap="round" stroke-linejoin="round" stroke-width="1.5"
      d="M17.25 6.75 22.5 12l-5.25 5.25m-10.5 0L1.5 12l5.25-5.25m7.5-3-4.5 16.5" />
  </symbol>
  <symbol id="icon-user">
    <path stroke-linecap="round" stroke-linejoin="round" stroke-width="1.5"
      d="M15.75 6a3.75 3.75 0 1 1-7.5 0 3.75 3.75 0 0 1 7.5 0ZM4.501 20.118a7.5 7.5 0 0 1 14.998 0A17.933 17.933 0 0 1 12 21.75c-2.676 0-5.216-.584-7.499-1.632Z" />
  </symbol>
</svg>