<svg width="200" height="35" viewBox="0 0 200 35" fill="none" xmlns="http://www.w3.org/2000/svg">
<path d="M16.5704 0.825439L17.3515 0.972317C17.9591 2.7482 18.0659 4.69766 17.6653 6.83405H13.5728L13.259 6.66715L12.6248 6.83405L12.1441 6.66715V17.5628L12.311 18.197L12.1441 19.145L12.311 19.7793V20.7273L12.1441 21.3415C12.2776 22.0625 12.3377 22.9038 12.311 23.8718V28.2982C12.2642 28.9791 12.311 29.8203 12.4579 30.8285V34.1399C11.3763 34.6606 10.0678 34.7674 8.5122 34.4536C8.03819 34.6673 7.46403 34.7674 6.78305 34.7674L6.14881 32.8714C6.38248 32.137 6.42921 31.3492 6.29569 30.508V27.8308C6.32907 27.7173 6.28234 27.6105 6.14881 27.517C6.30904 26.4021 6.25563 25.0268 5.98191 23.4111C6.14214 22.8303 6.14214 22.136 5.98191 21.3482V20.734C6.0954 20.0129 6.0954 19.1717 5.98191 18.2037V10.299L6.14881 9.20412L5.98191 7.15451L5.66812 6.84073C5.14738 6.84073 4.57322 6.94755 3.93898 7.15451C3.35815 6.99428 2.67717 6.9342 1.89605 6.98761H0.948025L0.46066 6.84073C0.200287 6.09299 0.0934673 5.19837 0.146877 4.14353V2.41438L0 1.61324L0.146877 1.29945C1.01479 1.15258 2.06963 1.09917 3.31141 1.15258H8.83266C9.67386 1.22601 10.6753 1.1726 11.8236 0.985669H15.9295L16.5637 0.838792L16.5704 0.825439Z" fill="#F38300"/>
<path d="M22.7259 0.45166H26.558L27.0387 0.618566H27.5194C28.0535 0.55848 28.6944 0.605214 29.4355 0.765443L29.7693 0.618566L30.8842 0.765443H31.3649C31.9991 0.6653 32.7402 0.6653 33.5948 0.765443H34.2424L35.0435 0.618566C35.7645 0.778796 36.6658 0.832206 37.7541 0.765443H38.7221C38.7488 1.03917 38.8556 1.30622 39.0359 1.56659C38.7154 2.18748 38.7154 2.88181 39.0359 3.64958L38.869 4.76451L39.0359 5.41211L38.5485 6.21325C37.4803 6.42689 36.0917 6.42689 34.3826 6.21325C33.9085 6.25999 33.2743 6.25999 32.4665 6.21325C31.8189 6.34678 31.0711 6.40686 30.2166 6.38016C29.7426 6.17987 29.2152 6.07305 28.621 6.04635H27.9867C27.8265 6.92761 27.7664 7.99581 27.8198 9.26429V10.2123C27.8198 10.6997 27.7731 11.3339 27.6729 12.1284V12.7827L27.3391 13.2634V13.8976L28.1403 14.2114C29.2686 13.9043 30.5504 13.7975 31.9925 13.8976H34.0755L34.5628 14.385V18.8647L34.3959 19.1785L33.7617 19.8261C33.2075 19.7126 32.5599 19.766 31.8322 19.973L31.3649 19.8261C30.9042 19.8728 30.3701 19.8728 29.7626 19.8261H28.3139L27.8265 19.5123V25.2606L27.6796 26.3955V26.8829L27.3458 28.1447L30.5638 27.9978H31.0311L31.5118 28.1447H36.4789L37.28 27.9978C37.7607 28.0713 38.2481 28.2849 38.7288 28.6321L38.5619 29.1194V32.798L38.415 33.2854V34.0865L38.2481 34.5672C38.1346 34.5939 38.0278 34.7008 37.9343 34.881C37.2133 34.7208 36.3587 34.6607 35.3706 34.7141H33.2877L32.807 34.5672H25.9238L24.1546 34.2535H23.5203L22.8727 34.5672L21.9247 34.4003C21.7912 33.6793 21.7311 32.8314 21.7578 31.8367V10.0721C21.7578 9.37779 21.8112 8.41641 21.9247 7.18798V4.93809C22.0248 4.0368 21.9648 2.86178 21.7578 1.42639C22.0315 1.23946 22.352 0.918997 22.7259 0.458336V0.45166Z" fill="#111111"/>
<path d="M50.1652 0.812254L51.2802 0.959131C51.3002 1.53996 51.2468 2.22762 51.1133 3.02209C51.2267 3.66968 51.2802 4.41075 51.2802 5.25195V6.36688C50.3722 6.60055 49.7379 7.18138 49.3641 8.11606C49.2639 9.02402 49.3173 10.1857 49.531 11.6144L49.3641 12.1018V12.736L49.531 13.2167C49.3708 13.6907 49.3708 14.2181 49.531 14.799C49.3708 15.3798 49.3107 16.0741 49.3641 16.8619V21.3283L49.2172 21.809L49.3641 22.4433L49.2172 22.9106C49.3173 23.6049 49.3173 24.4528 49.2172 25.4609L49.531 28.1782C50.439 28.9259 50.9597 29.9807 51.1133 31.356C50.8996 32.1972 50.8996 33.1519 51.1133 34.2201L50.9664 34.5339L49.5377 34.8477C47.3545 34.0532 45.4451 32.5711 43.8095 30.4013C43.3488 29.2263 43.1418 27.8377 43.1752 26.2554V24.5062C43.0617 23.8787 43.0083 23.1309 43.0083 22.2764L43.1752 21.9626C43.1151 21.355 43.1151 20.614 43.1752 19.7327V16.0875C43.0617 15.5601 43.0617 14.9726 43.1752 14.3383L43.0083 13.684L43.1752 12.9029V8.92388L43.3221 7.95583L43.489 6.86092C43.8629 6.32683 44.2301 5.57909 44.6039 4.62439L44.7508 4.3106L45.552 3.51613L45.6988 3.02876C46.293 2.84183 46.9339 2.52805 47.6149 2.08074L48.1023 1.91383H48.5896L49.3708 1.27959L49.8514 1.13271C49.9649 1.10601 50.0718 0.999189 50.1652 0.81893V0.812254ZM56.0603 22.263L58.9245 23.2311L60.0394 23.6984L60.5067 24.0122C60.8005 25.4743 60.7003 27.0098 60.1929 28.6255C59.2115 32.7914 56.8815 34.7008 53.2029 34.3537C53.1762 33.6727 53.2296 32.7781 53.3498 31.6565V31.0222C53.2764 30.7018 53.2229 30.2745 53.2029 29.7404L53.5167 29.2731L53.3498 28.9593C54.3312 28.6388 55.0723 27.9378 55.5797 26.8763C55.6264 25.9817 55.5797 24.82 55.4328 23.3779L56.067 22.263H56.0603ZM53.8305 0.638672C57.1419 1.38641 59.2583 3.55619 60.1929 7.16136C60.5668 8.30299 60.6202 9.51807 60.3598 10.8066C59.8524 10.8466 59.3718 11.0603 58.9311 11.4609C58.1834 11.5877 57.3889 11.9015 56.5344 12.4089L56.2206 12.5758L55.5863 12.4089C55.3994 11.5877 55.3527 10.633 55.4395 9.54477V8.59675C55.0322 7.90242 54.3913 7.32159 53.5234 6.84757V1.12604C53.6836 1.03925 53.7904 0.87234 53.8372 0.638672H53.8305Z" fill="#111111"/>
<path d="M68.1844 0.45166C68.9321 0.45166 69.8802 0.55848 71.0485 0.765443L71.2154 3.94333V6.02632C71.1019 6.79409 71.1553 7.69538 71.3623 8.72352C71.1753 9.34441 71.1753 10.0387 71.3623 10.8065L71.2154 11.2738C71.2421 11.4341 71.2421 11.6544 71.2154 11.9281C71.3756 12.5624 71.429 13.2967 71.3623 14.1379L71.2154 15.2529C71.5225 15.3864 71.843 15.4465 72.1634 15.4198C72.2502 15.7402 72.4104 16.0607 72.6441 16.3678V20.2C72.4839 20.8809 72.0032 21.2014 71.2154 21.148V27.21C71.1286 27.8443 71.182 28.5786 71.3623 29.4265C71.2421 30.468 71.2421 31.7899 71.3623 33.4056L71.2154 33.8929V34.3803L70.728 34.6941C69.9336 34.4537 69.0389 34.4003 68.0308 34.5272C67.7371 34.4804 67.4099 34.4804 67.0628 34.5272C66.9026 34.5272 66.7423 34.5806 66.5821 34.6941L65.1534 34.3803C64.7061 32.6578 64.6593 30.5348 65.0065 27.9978L64.8396 26.1018L65.0065 25.6144C64.7929 24.8466 64.7929 23.8919 65.0065 22.7503C64.8196 21.7355 64.7662 20.5138 64.8396 19.085V1.25281C65.7409 0.765443 66.8625 0.498394 68.1844 0.45166ZM77.1105 0.772119H83.1525C82.8921 2.39445 82.8921 4.46408 83.1525 6.98102L82.9856 7.78217L83.1525 9.04398L82.9856 9.53134C82.9122 10.4393 82.9656 11.4942 83.1525 12.7092L82.9856 13.8242L83.1525 14.4718L82.9856 17.0221L83.1525 17.3359L82.9856 17.9701L83.1525 18.2839V18.7713L82.9856 19.7193V20.6673L83.1525 21.6354L82.9856 22.5834C82.9589 23.3044 83.0123 24.1523 83.1525 25.1337V34.3803H76.9436C76.7834 33.5257 76.7233 32.5176 76.7767 31.3493L76.6298 23.8786C76.73 23.0507 76.73 22.0359 76.6298 20.8476C76.1425 20.8676 75.7219 20.714 75.348 20.3602C75.4615 19.7794 75.4615 19.0917 75.348 18.2972V16.0674C75.5683 15.6468 76.049 15.3797 76.7767 15.2662C76.9102 14.3382 76.8101 13.2767 76.4629 12.0883C76.5964 11.7412 76.5964 11.3206 76.4629 10.8199L76.6298 8.26953V7.78884L76.4629 7.47506V5.87276C76.6766 4.8246 76.6766 3.65625 76.4629 2.38109C76.5764 1.92043 76.7901 1.38633 77.1172 0.778796L77.1105 0.772119Z" fill="#111111"/>
<path d="M90.2561 34.6472C89.0544 34.8208 87.9461 34.5538 86.9447 33.8528V31.9567L86.958 31.476V27.6973C87.0181 27.1632 86.9714 26.5823 86.8112 25.9481C86.9714 25.3806 86.9714 24.693 86.8112 23.9052C86.9447 23.2709 86.9514 22.5365 86.8312 21.6887C86.8779 21.1345 86.8312 20.5003 86.6843 19.7926C86.7578 19.4855 86.7578 19.165 86.6843 18.8446L86.8512 18.2103C86.691 17.5761 86.6376 16.8417 86.6843 16.0005C86.5842 15.1593 86.6443 14.1579 86.8712 13.0029V12.5222L87.5055 12.6891C87.6524 13.1097 87.9127 13.5303 88.2866 13.9576C88.547 15.433 89.1746 16.8551 90.1626 18.237L90.3095 18.8713L90.9438 19.9662L91.7249 21.8622L91.8918 22.176L92.3591 22.6634V23.2976L92.9934 24.0788L93.1402 24.8732L93.454 25.5075C93.4807 25.7678 93.5809 26.0282 93.7678 26.2886C93.2337 28.1379 93.227 30.2409 93.7478 32.611L93.5809 32.9248L93.414 34.1866L90.2561 34.6539V34.6472ZM103.368 34.2266C102.427 34.3735 101.486 34.1065 100.544 33.4255C100.311 32.3506 99.7831 31.1289 98.9619 29.7803L98.815 29.146L98.5013 28.8322C98.3143 28.0778 97.9471 27.29 97.4063 26.4755L97.2595 25.9882L96.9457 25.5208C96.7855 24.7998 96.4183 24.0654 95.8508 23.3043V22.8236L95.537 22.1894L95.0697 21.702C94.9361 20.9676 94.5689 20.2867 93.9748 19.6524C93.9147 19.332 93.8079 19.0182 93.661 18.7044C93.6877 18.5909 93.6276 18.4841 93.4941 18.3906C93.2604 17.5694 92.8465 16.7816 92.2456 16.0072V15.5398L91.7783 14.7454L91.2976 13.9643L90.8303 13.1631C90.67 12.3686 90.2494 11.5808 89.5685 10.7864V10.319C89.2547 9.87172 88.9476 9.3443 88.6405 8.73676L88.3267 8.42298L88.1598 8.1092C88.0329 7.38816 87.6657 6.65378 87.0649 5.89936L86.7644 4.3171C86.8379 3.783 86.8379 3.20216 86.7644 2.56792V1.47302C87.5589 1.21264 88.5069 1.21264 89.6085 1.47302L90.7234 1.17259H91.3577L91.825 1.32614C92.0854 2.14064 92.6061 3.19549 93.3873 4.484C93.3606 4.5975 93.4206 4.70432 93.5542 4.79778C93.5542 4.95801 93.6009 5.11824 93.701 5.28515C93.8412 5.73246 94.0482 6.25988 94.3353 6.86074L94.6491 7.34811C94.6491 7.49498 94.6958 7.64854 94.7959 7.81544L95.1097 8.61659C95.27 9.15737 95.5904 9.7382 96.0578 10.3457V10.8331L96.3715 11.3004C96.4717 11.5942 96.6252 11.9147 96.8389 12.2485L97.1527 13.1965L97.4464 13.991L97.9338 14.939L98.4011 15.887L98.7149 16.5213L99.1822 17.4693L99.496 18.4173L99.9633 19.3653C100.257 20.1331 100.731 21.0344 101.379 22.0625C101.512 22.7235 101.833 23.351 102.327 23.9586C102.353 24.2924 102.507 24.713 102.794 25.2271L103.428 26.1751C103.475 26.5089 103.582 26.8761 103.742 27.27L103.722 31.229L103.869 31.5428L103.722 32.0101L103.702 33.9062C103.602 33.9262 103.495 34.033 103.388 34.22L103.368 34.2266ZM103.742 19.5322L102.474 19.0449L102.494 17.6295L101.859 16.2141L101.225 14.6185L100.911 14.3047L100.764 13.8374L100.451 13.5236C100.317 13.0763 100.104 12.5489 99.8165 11.948L99.5027 11.4607C99.456 11.2737 99.3491 11.1202 99.1889 10.9933L99.042 10.3591L98.8952 9.55794L98.4145 9.0906L98.2676 8.45636L97.8003 7.97567C97.8003 7.6018 97.7468 7.23461 97.6333 6.88077L97.6534 5.61228C97.5666 4.86455 97.6267 3.96993 97.8203 2.91509C97.7602 2.46778 97.7602 1.94035 97.8203 1.33282L98.7683 1.18594C99.7364 1.27273 100.945 1.21932 102.393 1.03906H102.881C102.901 1.15256 103.008 1.25938 103.195 1.35285C103.528 2.65471 103.575 4.23698 103.321 6.09297L103.488 6.58034L103.468 9.25751C103.515 9.70482 103.515 10.2322 103.468 10.8398C103.442 11.3138 103.495 11.7344 103.615 12.1016V14.6319L103.762 16.6815L103.909 18.7444L103.742 19.5256V19.5322Z" fill="#111111"/>
<path d="M111.346 0.992466C112.348 0.71874 113.456 0.765474 114.678 1.13934L114.991 3.66964C114.878 3.9901 114.825 4.4107 114.825 4.93145L114.991 5.24523V34.3469C114.124 34.3469 113.069 34.5072 111.827 34.8343C111.106 34.5472 110.265 34.4404 109.297 34.5205L109.13 33.5725V24.5529L108.983 24.0856L109.13 23.2911L108.983 22.3431L109.13 21.5419L108.983 20.5939C108.923 20.0264 108.969 19.3388 109.13 18.5443L108.983 18.2305V10.1589C108.849 8.89045 108.849 7.26145 108.983 5.2519L108.816 4.47078L108.983 3.9901L108.816 3.04207V1.4598L109.45 0.992466C109.944 1.11931 110.472 1.05923 111.032 0.82556L111.346 0.992466Z" fill="#111111"/>
<path d="M125.974 0.812254L127.089 0.959131C127.109 1.53996 127.062 2.22762 126.922 3.02209C127.035 3.66968 127.089 4.41075 127.089 5.25195V6.36688C126.181 6.60055 125.547 7.18138 125.173 8.11606C125.073 9.02402 125.133 10.1857 125.34 11.6144L125.173 12.1018V12.736L125.34 13.2167C125.179 13.6907 125.179 14.2181 125.34 14.799C125.179 15.3798 125.119 16.0741 125.173 16.8619V21.3283L125.026 21.809L125.173 22.4433L125.026 22.9106C125.126 23.6049 125.126 24.4528 125.026 25.4609L125.34 28.1782C126.241 28.9259 126.768 29.9807 126.915 31.356C126.702 32.1972 126.702 33.1519 126.915 34.2201L126.768 34.5339L125.34 34.8477C123.157 34.0532 121.247 32.5711 119.611 30.4013C119.151 29.2263 118.937 27.8377 118.977 26.2554V24.5062C118.864 23.8787 118.81 23.1309 118.81 22.2764L118.977 21.9626C118.917 21.355 118.917 20.614 118.977 19.7327V16.0875C118.864 15.5601 118.864 14.9726 118.977 14.3383L118.81 13.684L118.977 12.9029V8.92388L119.124 7.95583L119.291 6.86092C119.665 6.32683 120.032 5.57909 120.406 4.62439L120.553 4.3106L121.354 3.51613L121.501 3.02876C122.095 2.84183 122.736 2.52805 123.417 2.08074L123.904 1.91383H124.392L125.173 1.27959L125.653 1.13271C125.767 1.10601 125.874 0.999189 125.967 0.81893L125.974 0.812254ZM131.869 22.263L134.733 23.2311L135.848 23.6984L136.315 24.0122C136.609 25.4743 136.509 27.0098 136.002 28.6255C135.02 32.7914 132.69 34.7008 129.012 34.3537C128.992 33.6727 129.038 32.7781 129.158 31.6565V31.0222C129.085 30.7018 129.038 30.2745 129.012 29.7404L129.325 29.2731L129.158 28.9593C130.14 28.6388 130.881 27.9378 131.388 26.8763C131.435 25.9817 131.388 24.82 131.241 23.3779L131.876 22.263H131.869ZM129.639 0.638672C132.951 1.38641 135.067 3.55619 136.002 7.16136C136.375 8.30299 136.429 9.51807 136.169 10.8066C135.661 10.8466 135.18 11.0603 134.733 11.4609C133.985 11.5877 133.191 11.9015 132.336 12.4089L132.023 12.5758L131.388 12.4089C131.201 11.5877 131.155 10.633 131.241 9.54477V8.59675C130.834 7.90242 130.193 7.32159 129.325 6.84757V1.12604C129.486 1.03925 129.592 0.87234 129.639 0.638672Z" fill="#111111"/>
<path d="M145.181 11.4074L146.296 11.7212C146.27 12.4756 146.377 13.3235 146.61 14.2715C146.55 14.9057 146.65 15.6 146.924 16.3545V16.9887L147.071 17.3025V17.9501L147.238 18.5843L147.552 21.7622C147.538 21.9224 147.592 22.0827 147.718 22.2496V22.7303L147.872 23.3645C147.932 24.1256 147.779 24.9201 147.405 25.7613V27.0298L147.238 27.5171V27.9978L147.071 29.4332L146.924 29.747V30.3812C146.684 31.149 146.583 32.1104 146.61 33.2587L146.443 33.5725L146.296 34.2067C145.535 34.1867 144.687 34.3402 143.726 34.6941L141.663 34.5272H140.695L140.381 34.0598C140.368 33.2921 140.528 32.4909 140.862 31.6631C140.922 30.695 141.189 29.5267 141.663 28.1447L141.977 25.9148L142.144 24.9668L142.458 23.8519L142.925 21.622V20.8209L143.259 20.1866C143.245 19.4456 143.399 18.5376 143.726 17.4761L144.38 14.1313L144.694 12.8494V12.2219L145.175 11.4207L145.181 11.4074ZM148.046 0.0844727C149.201 0.838888 150.583 0.999117 152.192 0.565162C152.365 0.865592 152.632 1.12597 152.986 1.36631C152.979 2.23422 153.14 3.34915 153.473 4.71111V5.50558L153.62 6.13982C153.607 6.30005 153.66 6.46028 153.787 6.62719L153.934 7.89567L154.101 8.54327V9.32439C154.228 9.35777 154.335 9.47126 154.415 9.6582C154.401 9.80507 154.455 9.95863 154.582 10.1255C154.522 10.7531 154.622 11.5008 154.895 12.3554C154.849 13.2967 155.109 14.3049 155.69 15.3864C155.67 16.2677 155.823 17.2224 156.157 18.2639L156.324 19.3788C156.424 20.1199 156.631 21.0212 156.958 22.076C157.018 22.797 157.185 23.6516 157.446 24.6464V25.1137C157.432 25.2272 157.486 25.334 157.613 25.4475L157.926 26.716V27.3636L158.414 27.9978L158.561 30.5481L158.728 30.8619L159.362 33.4123V34.5272L156.498 34.3803H156.01C155.563 34.3469 155.136 34.3937 154.728 34.5272L154.241 34.3803H153.46C152.906 33.0784 152.532 31.376 152.345 29.2663C151.624 29.0794 150.769 29.0326 149.775 29.1194C149.748 29.0059 149.641 28.8991 149.461 28.8056L149.314 27.6907C149.895 26.6158 150.155 25.3407 150.095 23.8586L151.377 23.3712C151.143 22.6902 150.93 21.8423 150.743 20.8209L150.576 20.5071C150.603 20.3936 150.556 20.2934 150.429 20.1933C150.476 19.6125 150.429 18.9181 150.262 18.1103C150.149 17.663 150.095 17.1289 150.095 16.5147C149.868 16.0941 149.715 15.5066 149.628 14.7655L149.461 14.1313L149.314 13.3301C149.087 12.7226 148.98 11.9214 148.98 10.9334L148.833 10.6196L148.52 9.8251L148.353 8.71017L148.186 7.9157C148.072 7.62862 147.965 7.20802 147.872 6.64721C147.932 6.3134 147.825 5.98627 147.558 5.67916L147.411 4.56423L147.078 3.6162V2.64815L146.764 1.70012L146.931 0.732068C147.391 0.778801 147.759 0.571838 148.046 0.104501V0.0844727Z" fill="#111111"/>
<path d="M166.439 1.05248C167.253 0.952341 168.254 1.01243 169.43 1.21939C169.877 2.91516 169.984 5.01149 169.743 7.50173L169.897 8.13597C169.797 8.58328 169.797 9.1107 169.897 9.71824L169.743 10.1856C169.697 10.8398 169.743 11.5809 169.897 12.3954V13.3434L169.743 14.2915V15.3864L170.057 16.4813C169.897 17.1622 169.837 18.0569 169.89 19.1584V22.4699L170.057 23.4179L169.89 24.5128V28.6253C170.892 29.1461 172.053 29.2529 173.368 28.9391C174.003 29.1995 174.737 29.2462 175.578 29.086C176.707 29.3931 178.022 29.3931 179.524 29.086L180.138 29.3998C180.352 30.5281 180.405 31.9968 180.305 33.8061V34.2868C179.938 34.4604 179.464 34.6139 178.896 34.7541C177.888 34.5672 176.68 34.5205 175.271 34.6073H165.804L165.17 34.4403H164.536L163.908 34.2935L163.441 33.9797V26.0951C163.461 25.4141 163.461 24.5195 163.441 23.4179C163.541 22.6635 163.541 21.7689 163.441 20.7407L163.588 19.6458L163.441 2.14739L163.755 1.36627L164.85 1.21939H166.118C166.232 1.23942 166.338 1.18601 166.432 1.05248H166.439Z" fill="#111111"/>
<path d="M187.676 29.1663H187.989C190.366 30.7485 190.793 32.4443 189.258 34.2402C186.855 35.5888 185.266 34.801 184.498 31.8635C185.005 30.4614 186.067 29.5602 187.676 29.1663Z" fill="#111111"/>
<path d="M196.355 0.992466C197.363 0.71874 198.471 0.765474 199.686 1.13934L200 3.66964C199.893 3.9901 199.833 4.4107 199.833 4.93145L200 5.24523V34.3469C199.132 34.3469 198.077 34.5072 196.842 34.8343C196.121 34.5472 195.28 34.4404 194.312 34.5205L194.145 33.5725V24.5529L193.998 24.0856L194.145 23.2911L193.998 22.3431L194.145 21.5419L193.998 20.5939C193.938 20.0264 193.985 19.3388 194.145 18.5443L193.998 18.2305V10.1589C193.858 8.89045 193.858 7.26145 193.998 5.2519L193.831 4.47078L193.998 3.9901L193.831 3.04207V1.4598L194.465 0.992466C194.959 1.11931 195.487 1.05923 196.048 0.82556L196.361 0.992466H196.355Z" fill="#172A88"/>
</svg>
