<svg xmlns="http://www.w3.org/2000/svg" style="display:none;">
  <defs>
    <symbol id="logo" viewBox="0 0 140 60" role="img" aria-label="firefly">
      <path id="logo-text"
        d="M19.8864 20.8182V24.9091H5.09091V20.8182H19.8864ZM9.14773 47V17.7841C9.14773 16.1477 9.50568 14.7898 10.2216 13.7102C10.9375 12.6193 11.8864 11.8068 13.0682 11.2727C14.25 10.7273 15.5341 10.4545 16.9205 10.4545C17.9432 10.4545 18.8182 10.5398 19.5455 10.7102C20.2727 10.8693 20.8125 11.017 21.1648 11.1534L19.9716 15.2784C19.733 15.2102 19.4261 15.1307 19.0511 15.0398C18.6761 14.9375 18.2216 14.8864 17.6875 14.8864C16.4489 14.8864 15.5625 15.1932 15.0284 15.8068C14.5057 16.4205 14.2443 17.3068 14.2443 18.4659V47H9.14773ZM37.848 47V20.8182H42.7741V24.9773H43.0469C43.5241 23.5682 44.3651 22.4602 45.5696 21.6534C46.7855 20.8352 48.1605 20.4261 49.6946 20.4261C50.0128 20.4261 50.3878 20.4375 50.8196 20.4602C51.2628 20.483 51.6094 20.5114 51.8594 20.5455V25.4205C51.6548 25.3636 51.2912 25.3011 50.7685 25.233C50.2457 25.1534 49.723 25.1136 49.2003 25.1136C47.9957 25.1136 46.9219 25.3693 45.9787 25.8807C45.0469 26.3807 44.3082 27.0795 43.7628 27.9773C43.2173 28.8636 42.9446 29.875 42.9446 31.0114V47H37.848ZM66.6165 47.5284C64.0369 47.5284 61.8153 46.9773 59.9517 45.875C58.0994 44.7614 56.6676 43.1989 55.6562 41.1875C54.6562 39.1648 54.1562 36.7955 54.1562 34.0795C54.1562 31.3977 54.6562 29.0341 55.6562 26.9886C56.6676 24.9432 58.0767 23.3466 59.8835 22.1989C61.7017 21.0511 63.8267 20.4773 66.2585 20.4773C67.7358 20.4773 69.1676 20.7216 70.554 21.2102C71.9403 21.6989 73.1847 22.4659 74.2869 23.5114C75.3892 24.5568 76.2585 25.9148 76.8949 27.5852C77.5313 29.2443 77.8494 31.2614 77.8494 33.6364V35.4432H57.0369V31.625H72.8551C72.8551 30.2841 72.5824 29.0966 72.0369 28.0625C71.4915 27.017 70.7244 26.1932 69.7358 25.5909C68.7585 24.9886 67.6108 24.6875 66.2926 24.6875C64.8608 24.6875 63.6108 25.0398 62.5426 25.7443C61.4858 26.4375 60.6676 27.3466 60.0881 28.4716C59.5199 29.5852 59.2358 30.7955 59.2358 32.1023V35.0852C59.2358 36.8352 59.5426 38.3239 60.1562 39.5511C60.7812 40.7784 61.6506 41.7159 62.7642 42.3636C63.8778 43 65.179 43.3182 66.6676 43.3182C67.6335 43.3182 68.5142 43.1818 69.3097 42.9091C70.1051 42.625 70.7926 42.2045 71.3722 41.6477C71.9517 41.0909 72.3949 40.4034 72.7017 39.5852L77.5256 40.4545C77.1392 41.875 76.446 43.1193 75.446 44.1875C74.4574 45.2443 73.2131 46.0682 71.7131 46.6591C70.2244 47.2386 68.5256 47.5284 66.6165 47.5284ZM95.9645 20.8182V24.9091H81.169V20.8182H95.9645ZM85.2259 47V17.7841C85.2259 16.1477 85.5838 14.7898 86.2997 13.7102C87.0156 12.6193 87.9645 11.8068 89.1463 11.2727C90.3281 10.7273 91.6122 10.4545 92.9986 10.4545C94.0213 10.4545 94.8963 10.5398 95.6236 10.7102C96.3509 10.8693 96.8906 11.017 97.2429 11.1534L96.0497 15.2784C95.8111 15.2102 95.5043 15.1307 95.1293 15.0398C94.7543 14.9375 94.2997 14.8864 93.7656 14.8864C92.527 14.8864 91.6406 15.1932 91.1065 15.8068C90.5838 16.4205 90.3224 17.3068 90.3224 18.4659V47H85.2259ZM106.32 12.0909V47H101.223V12.0909H106.32ZM116.398 56.8182C115.636 56.8182 114.943 56.7557 114.318 56.6307C113.693 56.517 113.227 56.392 112.92 56.2557L114.148 52.0795C115.08 52.3295 115.909 52.4375 116.636 52.4034C117.364 52.3693 118.006 52.0966 118.562 51.5852C119.131 51.0739 119.631 50.2386 120.062 49.0795L120.693 47.3409L111.114 20.8182H116.568L123.199 41.1364H123.472L130.102 20.8182H135.574L124.784 50.4943C124.284 51.858 123.648 53.0114 122.875 53.9545C122.102 54.9091 121.182 55.625 120.114 56.1023C119.045 56.5795 117.807 56.8182 116.398 56.8182Z"
      />
      <g id="logo-firefly">
        <g filter="url(#filter0_f_1_2)">
          <ellipse cx="27.5" cy="39.5" rx="10.5" ry="13.5" fill="#DBFF00" fill-opacity="0.7" />
        </g>
        <path d="M31 42C31 48.6667 24 48.6667 24 42H27.5H31Z" fill="#0C0C0C" />
        <path d="M31 24C31 20 24 20 24 24H27.5H31Z" fill="#F9656F" />
        <rect x="24" y="26.5" width="7" height="15.5" fill="#0C0C0C" />
        <rect x="24" y="24" width="7" height="2" fill="#F9656F" />
        <path d="M27.5 21V26" stroke="#0C0C0C" />
        <path d="M27.5 28.5L29 26.5H26L27.5 28.5Z" fill="black" />
        <path
          d="M27.18 24.5733C27.34 24.7867 27.66 24.7867 27.82 24.5733L28.52 23.64C28.7178 23.3763 28.5296 23 28.2 23H26.8C26.4704 23 26.2822 23.3763 26.48 23.64L27.18 24.5733Z"
          fill="#0C0C0C" />
        <path d="M27.5 27V47" stroke="black" />
        <ellipse cx="27.5" cy="18.5" rx="2.5" ry="2" fill="#0C0C0C" />
      </g>
    </symbol>
  </defs>
</svg>